<mxfile host="app.diagrams.net" modified="2023-05-22T08:14:32.205Z" agent="Mozilla/5.0 (Windows NT 10.0; Win64; x64; rv:109.0) Gecko/20100101 Firefox/113.0" etag="d89CcJMUJHqAQQPedr-T" version="21.3.2" type="github">
  <diagram name="Page-1" id="SlkHMPfUKlPncJVQEZnL">
    <mxGraphModel dx="1434" dy="726" grid="1" gridSize="10" guides="1" tooltips="1" connect="1" arrows="1" fold="1" page="1" pageScale="1" pageWidth="827" pageHeight="1169" math="0" shadow="0">
      <root>
        <mxCell id="0" />
        <mxCell id="1" parent="0" />
        <mxCell id="6nHxhkiDgHESShk4F_iz-5" value="" style="rounded=0;whiteSpace=wrap;html=1;fillColor=none;strokeColor=#9673a6;strokeWidth=2;" vertex="1" parent="1">
          <mxGeometry x="90" y="110" width="500" height="180" as="geometry" />
        </mxCell>
        <mxCell id="6nHxhkiDgHESShk4F_iz-1" value="Urgency service" style="rounded=1;whiteSpace=wrap;html=1;" vertex="1" parent="1">
          <mxGeometry x="100" y="130" width="120" height="30" as="geometry" />
        </mxCell>
        <mxCell id="6nHxhkiDgHESShk4F_iz-2" value="Hospital service" style="rounded=1;whiteSpace=wrap;html=1;" vertex="1" parent="1">
          <mxGeometry x="240" y="130" width="120" height="30" as="geometry" />
        </mxCell>
        <mxCell id="6nHxhkiDgHESShk4F_iz-3" value="Distance calculation service" style="rounded=1;whiteSpace=wrap;html=1;" vertex="1" parent="1">
          <mxGeometry x="380" y="130" width="200" height="30" as="geometry" />
        </mxCell>
        <mxCell id="6nHxhkiDgHESShk4F_iz-4" value="Gateway" style="rounded=0;whiteSpace=wrap;html=1;" vertex="1" parent="1">
          <mxGeometry x="90" y="30" width="310" height="40" as="geometry" />
        </mxCell>
        <mxCell id="6nHxhkiDgHESShk4F_iz-6" value="Distance calculation repository" style="rounded=1;whiteSpace=wrap;html=1;" vertex="1" parent="1">
          <mxGeometry x="380" y="220" width="200" height="30" as="geometry" />
        </mxCell>
        <mxCell id="6nHxhkiDgHESShk4F_iz-7" value="Hospital repository" style="rounded=1;whiteSpace=wrap;html=1;" vertex="1" parent="1">
          <mxGeometry x="240" y="220" width="120" height="30" as="geometry" />
        </mxCell>
        <mxCell id="6nHxhkiDgHESShk4F_iz-10" value="" style="endArrow=classic;startArrow=classic;html=1;rounded=0;entryX=0.5;entryY=0;entryDx=0;entryDy=0;exitX=0.5;exitY=1;exitDx=0;exitDy=0;" edge="1" parent="1" source="6nHxhkiDgHESShk4F_iz-2" target="6nHxhkiDgHESShk4F_iz-7">
          <mxGeometry width="50" height="50" relative="1" as="geometry">
            <mxPoint x="390" y="340" as="sourcePoint" />
            <mxPoint x="440" y="290" as="targetPoint" />
          </mxGeometry>
        </mxCell>
        <mxCell id="6nHxhkiDgHESShk4F_iz-11" value="" style="endArrow=classic;startArrow=classic;html=1;rounded=0;entryX=0.5;entryY=0;entryDx=0;entryDy=0;" edge="1" parent="1" target="6nHxhkiDgHESShk4F_iz-6">
          <mxGeometry width="50" height="50" relative="1" as="geometry">
            <mxPoint x="480" y="160" as="sourcePoint" />
            <mxPoint x="479.5" y="220" as="targetPoint" />
          </mxGeometry>
        </mxCell>
        <mxCell id="6nHxhkiDgHESShk4F_iz-12" value="&lt;i&gt;Proof of concept&lt;/i&gt;" style="rounded=0;whiteSpace=wrap;html=1;fillColor=#e1d5e7;strokeColor=#9673a6;strokeWidth=2;" vertex="1" parent="1">
          <mxGeometry x="90" y="230" width="120" height="60" as="geometry" />
        </mxCell>
        <mxCell id="6nHxhkiDgHESShk4F_iz-13" value="&lt;div&gt;Service registry&lt;/div&gt;" style="rounded=0;whiteSpace=wrap;html=1;" vertex="1" parent="1">
          <mxGeometry x="430" y="30" width="160" height="40" as="geometry" />
        </mxCell>
        <mxCell id="6nHxhkiDgHESShk4F_iz-14" value="" style="endArrow=classic;startArrow=classic;html=1;rounded=0;entryX=0;entryY=0.5;entryDx=0;entryDy=0;exitX=1;exitY=0.5;exitDx=0;exitDy=0;" edge="1" parent="1" source="6nHxhkiDgHESShk4F_iz-4" target="6nHxhkiDgHESShk4F_iz-13">
          <mxGeometry width="50" height="50" relative="1" as="geometry">
            <mxPoint x="390" y="340" as="sourcePoint" />
            <mxPoint x="440" y="290" as="targetPoint" />
          </mxGeometry>
        </mxCell>
        <mxCell id="6nHxhkiDgHESShk4F_iz-15" value="Hospital microservice" style="rounded=0;whiteSpace=wrap;html=1;fillColor=none;strokeColor=#82b366;strokeWidth=2;" vertex="1" parent="1">
          <mxGeometry x="240" y="330" width="140" height="70" as="geometry" />
        </mxCell>
        <mxCell id="6nHxhkiDgHESShk4F_iz-16" value="Distance calculation microservice" style="rounded=0;whiteSpace=wrap;html=1;fillColor=none;strokeColor=#b85450;strokeWidth=2;" vertex="1" parent="1">
          <mxGeometry x="414" y="330" width="140" height="70" as="geometry" />
        </mxCell>
        <mxCell id="6nHxhkiDgHESShk4F_iz-20" value="" style="endArrow=classic;startArrow=classic;html=1;rounded=0;entryX=0.436;entryY=-0.029;entryDx=0;entryDy=0;exitX=0.5;exitY=1;exitDx=0;exitDy=0;entryPerimeter=0;" edge="1" parent="1" target="6nHxhkiDgHESShk4F_iz-15">
          <mxGeometry width="50" height="50" relative="1" as="geometry">
            <mxPoint x="299.5" y="250" as="sourcePoint" />
            <mxPoint x="299.5" y="310" as="targetPoint" />
          </mxGeometry>
        </mxCell>
        <mxCell id="6nHxhkiDgHESShk4F_iz-21" value="" style="endArrow=classic;startArrow=classic;html=1;rounded=0;entryX=0.436;entryY=-0.029;entryDx=0;entryDy=0;exitX=0.5;exitY=1;exitDx=0;exitDy=0;entryPerimeter=0;" edge="1" parent="1">
          <mxGeometry width="50" height="50" relative="1" as="geometry">
            <mxPoint x="479.25" y="250" as="sourcePoint" />
            <mxPoint x="480.75" y="328" as="targetPoint" />
          </mxGeometry>
        </mxCell>
      </root>
    </mxGraphModel>
  </diagram>
</mxfile>
